# Blender v2.78 (sub 0) OBJ File: 'Fence.blend'
# www.blender.org
mtllib Fence.mtl
o Plane
v 0.920565 0.001298 0.068330
v 1.066789 0.001298 0.068330
v 0.920565 0.001298 -0.077894
v 1.066789 0.001298 -0.077894
v 0.924062 1.009926 0.081697
v 1.096949 1.016564 0.081697
v 0.924062 1.009926 -0.091261
v 1.096949 1.016564 -0.091261
v 1.095204 0.350245 -0.080546
v 1.087809 0.687561 -0.088678
v 1.087809 0.687561 0.079114
v 1.095204 0.350245 0.070982
v 0.943676 0.350245 0.070982
v 0.920016 0.687561 0.079114
v 0.920016 0.687561 -0.088678
v 0.943676 0.350245 -0.080546
v -0.923332 0.687561 -0.081236
v -0.968665 0.350245 -0.073824
v -0.933708 1.028767 -0.083589
v -1.089896 0.997722 -0.083589
v -0.933708 1.028767 0.074025
v -1.089896 0.997722 0.074025
v -0.956506 0.001298 -0.071408
v -1.089757 0.001298 -0.071408
v -0.956506 0.001298 0.061844
v -1.089757 0.001298 0.061844
v -0.923332 0.687561 0.071672
v -0.968665 0.350245 0.064260
v -1.106750 0.350245 0.064260
v -1.076239 0.687561 0.071672
v -1.076239 0.687561 -0.081236
v -1.106750 0.350245 -0.073824
v -1.150946 0.860471 0.061123
v -1.138616 0.668426 0.061123
v -1.142424 0.860471 0.132899
v -1.130094 0.668426 0.132899
v -0.069299 0.833453 0.061123
v -0.069299 0.641012 0.061123
v -0.046741 0.833453 0.132899
v -0.046741 0.641013 0.132899
v 1.204721 0.859778 0.069211
v 1.178586 0.669120 0.069211
v 1.204721 0.859778 0.132899
v 1.178586 0.669120 0.132899
v -1.164183 0.469259 0.061123
v -1.175170 0.277131 0.061123
v -1.155724 0.468228 0.132899
v -1.166711 0.276101 0.132899
v -0.097545 0.452430 0.061123
v -0.091445 0.260086 0.061123
v -0.074998 0.453145 0.132899
v -0.068898 0.260801 0.132899
v 1.165203 0.508068 0.069211
v 1.167872 0.315645 0.069211
v 1.165203 0.508068 0.132899
v 1.167872 0.315646 0.132899
v -1.142424 0.860471 0.132899
v -1.150946 0.860471 0.061123
v -1.138616 0.668426 0.061123
v -1.130094 0.668426 0.132899
v -0.069299 0.833453 0.061123
v -0.069299 0.833453 0.061123
v -0.069299 0.641012 0.061123
v -0.069299 0.641012 0.061123
v -0.046741 0.833453 0.132899
v -0.046741 0.641013 0.132899
v 1.204721 0.859778 0.132899
v 1.204721 0.859778 0.132899
v 1.204721 0.859778 0.069211
v 1.178586 0.669120 0.069211
v 1.178586 0.669120 0.132899
v 1.178586 0.669120 0.132899
v -1.150946 0.860471 0.061123
v -1.138616 0.668426 0.061123
v -1.130094 0.668426 0.132899
v -1.142424 0.860471 0.132899
v 1.204721 0.859778 0.069211
v 1.178586 0.669120 0.069211
v -1.164183 0.469259 0.061123
v -1.175170 0.277131 0.061123
v -1.175170 0.277131 0.061123
v -1.166711 0.276101 0.132899
v -1.166711 0.276101 0.132899
v -1.155724 0.468228 0.132899
v -0.074998 0.453145 0.132899
v -0.068898 0.260801 0.132899
v -0.091445 0.260086 0.061123
v -0.097545 0.452430 0.061123
v 1.165203 0.508068 0.132899
v 1.165203 0.508068 0.069211
v 1.165203 0.508068 0.069211
v 1.167872 0.315645 0.069211
v 1.167872 0.315645 0.069211
v 1.167872 0.315646 0.132899
v 1.167872 0.315646 0.132899
v 1.165203 0.508068 0.132899
v -1.155724 0.468228 0.132899
v -1.164183 0.469259 0.061123
v -0.956506 0.001298 -0.071408
v -0.956506 0.001298 -0.071408
v -0.968665 0.350245 -0.073824
v -0.968665 0.350245 0.064260
v -0.956506 0.001298 0.061844
v -0.956506 0.001298 0.061844
v -0.923332 0.687561 -0.081236
v -0.933708 1.028767 -0.083589
v -0.933708 1.028767 0.074025
v -0.933708 1.028767 0.074025
v -1.089896 0.997722 -0.083589
v -1.089896 0.997722 0.074025
v -1.089896 0.997722 0.074025
v -1.076239 0.687561 0.071672
v -1.089757 0.001298 -0.071408
v -1.106750 0.350245 -0.073824
v -1.089757 0.001298 0.061844
v -0.923332 0.687561 0.071672
v -1.106750 0.350245 0.064260
v -1.076239 0.687561 -0.081236
v -0.933708 1.028767 -0.083589
v -1.089896 0.997722 -0.083589
v -1.089757 0.001298 -0.071408
v -1.089757 0.001298 0.061844
v 0.920565 0.001298 -0.077894
v 0.920565 0.001298 -0.077894
v 0.920565 0.001298 0.068330
v 0.920565 0.001298 0.068330
v 1.066789 0.001298 0.068330
v 1.066789 0.001298 -0.077894
v 0.924062 1.009926 -0.091261
v 0.924062 1.009926 0.081697
v 0.924062 1.009926 0.081697
v 1.096949 1.016564 0.081697
v 1.096949 1.016564 0.081697
v 1.096949 1.016564 -0.091261
v 1.087809 0.687561 -0.088678
v 1.095204 0.350245 0.070982
v 0.920016 0.687561 0.079114
v 0.943676 0.350245 -0.080546
v 1.095204 0.350245 -0.080546
v 1.087809 0.687561 0.079114
v 0.943676 0.350245 0.070982
v 0.920016 0.687561 -0.088678
v 1.096949 1.016564 -0.091261
v 0.924062 1.009926 -0.091261
v 1.066789 0.001298 0.068330
v 1.066789 0.001298 -0.077894
vt 0.5611 0.5733
vt 0.4921 0.5112
vt 0.5611 0.5112
vt 0.4921 0.4378
vt 0.5738 0.5112
vt 0.4921 0.5112
vt 0.8245 0.1397
vt 0.9049 0.0000
vt 0.9037 0.1397
vt 0.9034 0.7224
vt 0.8233 0.8591
vt 0.8242 0.7224
vt 0.7362 0.1397
vt 0.6585 0.0030
vt 0.7401 0.0000
vt 0.8193 0.2915
vt 0.7416 0.4282
vt 0.7401 0.2913
vt 0.8103 0.0002
vt 0.7517 0.1482
vt 0.7412 0.0000
vt 0.7271 0.4311
vt 0.6686 0.2831
vt 0.7401 0.2829
vt 0.8980 0.4311
vt 0.8284 0.5790
vt 0.8290 0.4311
vt 0.8999 0.5790
vt 0.8296 0.4311
vt 0.8999 0.2826
vt 0.8986 0.4311
vt 0.8283 0.2826
vt 0.7303 0.7229
vt 0.6570 0.8674
vt 0.6581 0.7229
vt 0.4013 0.4613
vt 0.4757 0.5283
vt 0.4013 0.5283
vt 0.8135 0.7223
vt 0.7401 0.8541
vt 0.7414 0.7223
vt 0.6240 0.5678
vt 0.5611 0.5112
vt 0.6240 0.5112
vt 0.5745 0.2931
vt 0.6570 0.4229
vt 0.5836 0.4378
vt 0.4921 0.1447
vt 0.5745 0.0149
vt 0.5643 0.1464
vt 0.5622 0.4378
vt 0.5094 0.2883
vt 0.5745 0.2899
vt 0.6447 0.0000
vt 0.5918 0.1494
vt 0.5818 0.0015
vt 0.6467 0.2914
vt 0.8083 0.4312
vt 0.7441 0.5795
vt 0.7454 0.4312
vt 0.8092 0.5795
vt 0.7256 0.4312
vt 0.6616 0.5790
vt 0.6627 0.4312
vt 0.7268 0.5790
vt 0.6240 0.5113
vt 0.6479 0.5928
vt 0.6240 0.5929
vt 0.9563 0.0000
vt 0.9762 0.5203
vt 0.9525 0.5299
vt 0.2197 0.9911
vt 0.2978 0.5313
vt 0.3104 0.9964
vt 0.4921 0.4593
vt 0.4016 0.0073
vt 0.4921 0.0000
vt 0.9762 0.9798
vt 0.9525 0.9834
vt 0.9525 0.0036
vt 0.9287 0.4576
vt 0.9287 0.0000
vt 0.4650 0.6097
vt 0.4451 0.5283
vt 0.4650 0.5283
vt 0.9525 0.4672
vt 0.9325 0.9981
vt 0.2204 0.0111
vt 0.2069 0.5312
vt 0.4013 0.0017
vt 0.3115 0.5299
vt 0.3104 0.0000
vt 0.4013 0.5283
vt 0.4252 0.6096
vt 0.4013 0.6095
vt 0.9801 0.0000
vt 1.0000 0.5190
vt 0.9762 0.5285
vt 0.1163 0.9911
vt 0.1943 0.5313
vt 0.2069 0.9964
vt 0.0909 0.4592
vt 0.0128 0.0053
vt 0.1035 0.0000
vt 1.0000 0.9789
vt 0.9762 0.9825
vt 0.9287 0.0036
vt 0.9049 0.4593
vt 0.9049 0.0000
vt 0.4451 0.6100
vt 0.4252 0.5283
vt 0.4451 0.5283
vt 0.9287 0.4688
vt 0.9088 1.0000
vt 0.1169 0.0111
vt 0.1035 0.5312
vt 0.0134 0.9889
vt 0.0000 0.4592
vt 0.4921 0.5733
vt 0.5738 0.4378
vt 0.8233 0.0000
vt 0.9049 0.8591
vt 0.6570 0.1399
vt 0.8233 0.4312
vt 0.8233 0.1483
vt 0.6581 0.4312
vt 0.7314 0.8674
vt 0.4757 0.4613
vt 0.8145 0.8541
vt 0.5611 0.5678
vt 0.5012 0.0000
vt 0.4993 0.4363
vt 0.6570 0.1479
vt 0.6479 0.5112
vt 0.9762 0.0000
vt 0.4013 0.4613
vt 0.4451 0.6097
vt 0.9525 0.9981
vt 0.3104 0.0000
vt 0.4013 0.5426
vt 0.4252 0.5284
vt 1.0000 0.0000
vt 0.4252 0.6100
vt 0.9287 1.0000
vt 0.2069 0.0000
vt 0.1035 1.0000
vn 0.0000 -1.0000 0.0000
vn -0.0384 0.9993 0.0000
vn 0.9996 -0.0278 0.0000
vn -0.9999 0.0126 0.0000
vn 0.0003 -0.0079 -1.0000
vn 0.0000 -0.0080 1.0000
vn 0.0000 -0.0076 1.0000
vn 0.0000 -0.0241 0.9997
vn 0.0000 -0.0076 -1.0000
vn -0.0000 -0.0241 -0.9997
vn -0.9978 0.0661 0.0000
vn -0.9975 -0.0700 0.0000
vn 0.9967 -0.0812 0.0000
vn 0.9998 0.0219 0.0000
vn 0.9995 0.0304 0.0000
vn -0.1950 0.9808 0.0000
vn -0.9990 -0.0440 0.0000
vn 0.0014 -0.0069 -1.0000
vn -0.0000 -0.0069 1.0000
vn -0.0000 -0.0220 0.9998
vn 0.0000 -0.0069 -1.0000
vn 0.0000 -0.0220 -0.9998
vn -0.9988 -0.0486 0.0000
vn -0.9959 0.0901 0.0000
vn 0.9994 0.0348 0.0000
vn 0.9911 -0.1332 0.0000
vn -0.9910 -0.0636 0.1177
vn 0.0226 -0.9997 -0.0071
vn 0.0000 0.0000 1.0000
vn 0.0000 0.0000 -1.0000
vn -0.0256 -0.9997 0.0030
vn 0.0250 0.9997 -0.0030
vn 0.9907 -0.1358 0.0000
vn -0.0207 0.9998 0.0065
vn 0.0065 0.0000 -1.0000
vn -0.9914 0.0567 0.1177
vn 0.0441 -0.9990 -0.0039
vn -0.0157 -0.9998 -0.0125
vn 0.0158 0.9998 0.0125
vn 0.9999 0.0139 -0.0000
vn -0.0440 0.9990 0.0039
vn 0.0064 0.0002 -1.0000
vn 0.0000 -0.0080 -1.0000
vn 0.0003 -0.0079 1.0000
vn 0.0014 -0.0069 1.0000
vn 0.0229 -0.9997 0.0000
vn -0.0253 -0.9996 0.0080
vn 0.0247 0.9997 -0.0077
vn -0.0210 0.9998 0.0000
vn 0.0064 -0.0009 -1.0000
vn 0.0443 -0.9990 0.0000
vn -0.0139 -0.9998 0.0143
vn 0.0140 0.9998 -0.0143
vn -0.0442 0.9990 0.0000
vn 0.0064 0.0001 -1.0000
usemtl None
s off
f 123/1/1 127/2/1 125/3/1
f 132/4/2 129/5/2 130/6/2
f 135/7/3 133/8/3 140/9/3
f 137/10/4 7/11/4 142/12/4
f 10/13/5 144/14/5 143/15/5
f 11/16/6 5/17/6 14/18/6
f 2/19/7 141/20/7 126/21/7
f 141/20/8 11/16/8 14/18/8
f 4/22/9 138/23/9 139/24/9
f 138/23/10 10/13/10 139/24/10
f 1/25/11 16/26/11 3/27/11
f 13/28/12 142/12/12 16/26/12
f 146/29/13 12/30/13 145/31/13
f 9/32/14 140/9/14 12/30/14
f 105/33/15 107/34/15 116/35/15
f 108/36/16 109/37/16 110/38/16
f 112/39/17 20/40/17 118/41/17
f 113/42/1 104/43/1 115/44/1
f 17/45/18 120/46/18 19/47/18
f 27/48/7 22/49/7 30/50/7
f 26/51/19 102/52/19 117/53/19
f 102/52/20 30/50/20 117/53/20
f 24/54/21 101/55/21 99/56/21
f 101/55/22 31/57/22 17/45/22
f 122/58/23 32/59/23 121/60/23
f 29/61/24 118/41/24 32/59/24
f 23/62/25 28/63/25 25/64/25
f 18/65/26 116/35/26 28/63/26
f 59/66/27 57/67/27 58/68/27
f 42/69/28 66/70/28 64/71/28
f 75/72/29 39/73/29 76/74/29
f 62/75/30 74/76/30 73/77/30
f 64/71/31 36/78/31 34/79/31
f 35/80/32 61/81/32 33/82/32
f 69/83/33 72/84/33 70/85/33
f 65/86/34 41/87/34 61/81/34
f 44/88/29 39/73/29 40/89/29
f 37/90/35 78/91/35 38/92/35
f 80/93/36 84/94/36 79/95/36
f 93/96/37 86/97/37 50/98/37
f 83/99/29 51/100/29 47/101/29
f 49/102/30 81/103/30 45/104/30
f 50/98/38 48/105/38 46/106/38
f 97/107/39 88/108/39 98/109/39
f 90/110/40 95/111/40 92/112/40
f 85/113/41 91/114/41 88/108/41
f 56/115/29 51/100/29 52/116/29
f 49/102/42 54/117/42 87/118/42
f 123/1/1 128/119/1 127/2/1
f 132/4/2 134/120/2 129/5/2
f 135/7/3 8/121/3 133/8/3
f 137/10/4 131/122/4 7/11/4
f 10/13/43 15/123/43 144/14/43
f 11/16/44 6/124/44 5/17/44
f 2/19/7 136/125/7 141/20/7
f 141/20/8 136/125/8 11/16/8
f 4/22/9 124/126/9 138/23/9
f 138/23/10 15/123/10 10/13/10
f 1/25/11 13/28/11 16/26/11
f 13/28/12 137/10/12 142/12/12
f 146/29/13 9/32/13 12/30/13
f 9/32/14 135/7/14 140/9/14
f 105/33/15 106/127/15 107/34/15
f 108/36/16 119/128/16 109/37/16
f 112/39/17 111/129/17 20/40/17
f 113/42/1 100/130/1 104/43/1
f 17/45/9 31/57/9 120/46/9
f 27/48/45 21/131/45 22/49/45
f 26/51/19 103/132/19 102/52/19
f 102/52/20 27/48/20 30/50/20
f 24/54/21 114/133/21 101/55/21
f 101/55/22 114/133/22 31/57/22
f 122/58/23 29/61/23 32/59/23
f 29/61/24 112/39/24 118/41/24
f 23/62/25 18/65/25 28/63/25
f 18/65/26 105/33/26 116/35/26
f 59/66/27 60/134/27 57/67/27
f 42/69/46 71/135/46 66/70/46
f 75/72/29 40/89/29 39/73/29
f 62/75/30 63/136/30 74/76/30
f 64/71/47 66/70/47 36/78/47
f 35/80/48 65/86/48 61/81/48
f 69/83/33 67/137/33 72/84/33
f 65/86/49 68/138/49 41/87/49
f 44/88/29 43/139/29 39/73/29
f 37/90/50 77/140/50 78/91/50
f 80/93/36 82/141/36 84/94/36
f 93/96/51 94/142/51 86/97/51
f 83/99/29 52/116/29 51/100/29
f 49/102/30 87/118/30 81/103/30
f 50/98/52 86/97/52 48/105/52
f 97/107/53 85/113/53 88/108/53
f 90/110/40 89/143/40 95/111/40
f 85/113/54 55/144/54 91/114/54
f 56/115/29 96/145/29 51/100/29
f 49/102/55 53/146/55 54/117/55
