# Blender v2.78 (sub 0) OBJ File: 'Grass.blend'
# www.blender.org
o Plane
v 0.134454 0.004035 -0.140080
v -0.074914 0.004035 -0.177566
v 0.096968 0.004035 0.069288
v -0.112400 0.004035 0.031802
v 0.145361 0.416656 -0.147854
v -0.025724 0.404071 -0.213422
v 0.082240 0.391344 0.006350
v -0.074380 0.378330 -0.058578
v 0.034572 0.716112 -0.235905
v -0.109437 0.685663 -0.271980
v -0.001837 0.715034 -0.090152
v -0.145846 0.684585 -0.126227
v 0.008783 1.014111 -0.107929
v -0.101640 1.037282 -0.133076
v -0.016226 1.019359 0.003101
v -0.126648 1.042530 -0.022045
v 0.093050 1.484372 -0.028077
v -0.285769 0.001909 -0.201439
v -0.446080 0.001909 -0.096784
v -0.181114 0.001909 -0.041127
v -0.341425 0.001909 0.063528
v -0.262835 0.377152 -0.071976
v -0.390642 0.355546 0.012643
v -0.179399 0.391257 0.057645
v -0.307206 0.369651 0.142264
v -0.334919 0.687950 0.063924
v -0.424256 0.687950 0.122245
v -0.276598 0.687950 0.153261
v -0.365935 0.687950 0.211582
v -0.264242 1.045249 0.128692
v 0.252426 -0.000698 -0.117291
v 0.466991 -0.000698 -0.226493
v 0.414310 -0.000698 -0.064609
v 0.305108 -0.000698 -0.279175
v 0.437790 0.501564 -0.141493
v 0.486632 0.489952 -0.271374
v 0.309793 0.471874 -0.184749
v 0.358636 0.460262 -0.314630
v 0.333970 0.780344 -0.275821
v 0.363328 0.780344 -0.366034
v 0.243757 0.780344 -0.305179
v 0.273114 0.780344 -0.395392
v 0.342792 1.155472 -0.281271
v 0.084768 0.001907 -0.495691
v -0.075416 0.001907 -0.495691
v 0.084768 0.001907 -0.335507
v -0.075416 0.001907 -0.335507
v 0.083949 0.334124 -0.468177
v -0.017949 0.334124 -0.468177
v 0.072952 0.322698 -0.378801
v -0.017949 0.334124 -0.366279
v -0.063695 0.681887 -0.455423
v 0.170622 -0.002534 0.361466
v 0.186109 -0.002534 0.083819
v 0.317189 -0.002534 0.230386
v 0.039542 -0.002534 0.214899
v 0.209435 0.362033 0.315801
v 0.201628 0.419526 0.100319
v 0.314303 0.412942 0.207788
v 0.096760 0.368617 0.208332
v 0.072629 0.662838 0.342500
v 0.086167 0.655064 0.134919
v 0.181593 0.640631 0.246060
v -0.022797 0.677270 0.231358
v 0.081619 0.970589 0.276809
v 0.086602 0.976000 0.142084
v 0.150106 0.986966 0.212437
v 0.018115 0.959623 0.206457
v 0.013539 1.242267 0.187141
vt 0.5312 0.0000
vt 0.5177 0.1737
vt 0.5756 0.1574
vt 0.6038 0.0070
vt 0.4275 0.1542
vt 0.4854 0.1647
vt 0.4470 0.0000
vt 0.8890 0.2489
vt 0.9194 0.1185
vt 0.8839 0.1138
vt 0.8695 0.5277
vt 0.9421 0.5231
vt 0.9214 0.3678
vt 0.8629 0.3500
vt 0.6891 0.2487
vt 0.6379 0.2603
vt 0.6614 0.3525
vt 0.5738 0.4189
vt 0.5385 0.4225
vt 0.5480 0.5371
vt 0.4660 0.2795
vt 0.4625 0.4116
vt 0.5177 0.2933
vt 0.6038 0.2904
vt 0.5505 0.2759
vt 0.6386 0.1136
vt 0.6731 0.1145
vt 0.6819 0.0000
vt 0.9062 0.0000
vt 0.4927 0.5310
vt 0.4970 0.4120
vt 0.9421 0.2362
vt 0.6038 0.3616
vt 0.6891 0.5282
vt 0.6187 0.5357
vt 0.3288 0.9114
vt 0.3288 0.9942
vt 0.4086 0.9942
vt 0.4086 0.9114
vt 0.5177 0.0103
vt 0.1540 0.7696
vt 0.1747 0.6236
vt 0.1153 0.7684
vt 0.1139 0.9086
vt 0.0571 0.7784
vt 0.0218 0.7825
vt 0.0595 0.9169
vt 0.0367 0.6244
vt 0.2272 0.9115
vt 0.2867 0.9115
vt 0.2656 0.7717
vt 1.0000 0.5277
vt 0.9350 0.5277
vt 1.0000 0.5951
vt 0.3525 0.7710
vt 0.3288 0.9114
vt 0.3894 0.9114
vt 0.3849 0.7750
vt 0.3290 0.6208
vt 0.2277 0.7717
vt 0.2398 0.6251
vt 0.1747 0.9104
vt 0.9350 0.5951
vt 0.0000 0.9169
vt 0.8413 0.7871
vt 0.8279 0.6530
vt 0.7851 0.7826
vt 0.8327 0.2061
vt 0.7769 0.2134
vt 0.8246 0.3397
vt 0.8629 0.3433
vt 0.8076 0.4960
vt 0.8448 0.4960
vt 0.7901 0.6467
vt 0.7386 0.1577
vt 0.6891 0.2847
vt 0.7448 0.2920
vt 0.7769 0.1540
vt 0.7204 0.0000
vt 0.7389 0.8311
vt 0.7011 0.8374
vt 0.7570 0.9863
vt 0.6977 0.7068
vt 0.7540 0.7028
vt 0.6891 0.5012
vt 0.0000 0.9886
vt 0.0691 0.9169
vt 0.0000 0.9169
vt 0.7082 0.4900
vt 0.7769 0.4834
vt 0.7769 0.9778
vt 0.8448 0.9892
vt 0.8629 0.0063
vt 0.7942 0.0000
vt 0.7570 0.4900
vt 0.0691 0.9886
vt 0.9269 0.8064
vt 0.8982 0.6722
vt 0.8745 0.8010
vt 0.4275 0.8050
vt 0.4772 0.8154
vt 0.4938 0.6840
vt 0.4590 0.6809
vt 0.4678 0.5310
vt 0.9350 0.5277
vt 0.8629 0.6623
vt 0.6697 0.8155
vt 0.6538 0.6834
vt 0.6038 0.6926
vt 0.6343 0.8178
vt 0.6311 0.9754
vt 0.5531 0.8450
vt 0.5182 0.8553
vt 0.5804 0.9933
vt 0.5261 0.7076
vt 0.5790 0.7015
vt 0.5177 0.5555
vt 0.3050 0.9921
vt 0.2272 0.9115
vt 0.2272 0.9921
vt 0.6697 0.5357
vt 0.6063 0.5399
vt 0.8717 0.9529
vt 0.9350 0.9708
vt 0.4313 0.9705
vt 0.4938 0.9760
vt 0.5804 0.5371
vt 0.3050 0.9115
vt 0.2450 0.6214
vt 0.3288 0.6251
vt 0.2954 0.4659
vt 0.1139 0.9104
vt 0.1139 1.0000
vt 0.2003 0.9104
vt 0.1476 0.4620
vt 0.1425 0.6234
vt 0.2272 0.6236
vt 0.2165 0.4586
vt 0.1139 0.1736
vt 0.0395 0.1688
vt 0.0599 0.2997
vt 0.1098 0.0000
vt 0.3413 0.1760
vt 0.4088 0.1642
vt 0.3437 0.0041
vt 0.3888 0.3061
vt 0.3288 0.3089
vt 0.3822 0.4309
vt 0.0238 0.4365
vt 0.0693 0.4263
vt 0.1139 0.6244
vt 0.4275 0.4312
vt 0.4004 0.6208
vt 0.1855 0.1969
vt 0.1403 0.1868
vt 0.1740 0.3190
vt 0.2272 0.0000
vt 0.2834 0.1875
vt 0.3288 0.1873
vt 0.2979 0.0000
vt 0.2872 0.3363
vt 0.1139 0.3311
vt 0.2272 0.3332
vt 0.0000 0.2874
vt 0.2304 0.4522
vt 0.0249 0.0009
vt 0.2003 1.0000
vt 0.4275 0.0000
vn 0.7065 0.0433 0.7064
vn 0.6665 0.0224 0.7452
vn -0.6761 0.1620 0.7188
vn -0.6870 0.0172 -0.7265
vn -0.6640 0.0892 -0.7424
vn -0.7289 0.0535 -0.6825
vn -0.6497 -0.2112 -0.7303
vn 0.7117 0.4304 -0.5552
vn 0.5825 0.3827 0.7171
vn -0.7383 0.1614 0.6549
vn 0.6720 0.1358 0.7280
vn 0.6620 0.1318 0.7378
vn 0.7591 0.0058 -0.6510
vn 0.7412 0.0140 -0.6712
vn 0.6843 0.3002 -0.6645
vn -0.6758 -0.0611 -0.7345
vn -0.7445 0.0335 0.6668
vn -0.7448 0.1649 0.6466
vn -0.6591 0.0292 -0.7515
vn -0.6717 -0.2071 -0.7113
vn -0.7371 -0.3295 0.5900
vn -0.6555 -0.3572 0.6654
vn 0.6702 0.2426 0.7014
vn 0.6346 0.2468 0.7324
vn 0.6239 0.4687 -0.6254
vn 0.6903 0.0029 -0.7235
vn 0.7450 -0.0311 -0.6663
vn 0.0000 -1.0000 0.0000
vn -0.7395 0.1257 0.6613
vn 0.0000 0.0367 -0.9993
vn 0.0000 0.0825 -0.9966
vn 0.9926 -0.0076 0.1212
vn 0.9106 0.3807 0.1607
vn -0.9854 0.1705 -0.0000
vn -0.0000 0.0922 0.9957
vn 0.1521 0.1377 0.9787
vn 0.1642 0.2652 0.9501
vn -0.9915 -0.1304 -0.0000
vn 0.9993 0.0368 0.0000
vn -0.8978 -0.3131 -0.3096
vn -0.3661 0.2898 0.8843
vn -0.2960 0.2917 0.9096
vn -0.3094 0.0211 0.9507
vn -0.9179 0.2614 -0.2987
vn -0.9024 -0.3152 -0.2937
vn 0.3482 -0.1536 -0.9248
vn 0.3057 -0.1553 -0.9394
vn 0.3015 0.2258 -0.9264
vn 0.9508 -0.0179 0.3094
vn 0.8489 0.4505 0.2763
vn 0.8483 0.4502 0.2788
vn 0.9358 -0.0052 0.3524
vn 0.3079 -0.0989 -0.9463
vn 0.3413 -0.1114 -0.9333
vn -0.9306 0.0806 -0.3571
vn -0.9485 0.0711 -0.3087
vn -0.3513 0.1740 0.9200
vn -0.3056 0.1580 0.9390
vn 0.9509 0.0029 0.3095
vn 0.5598 -0.0823 0.8245
vn 0.7487 0.4036 -0.5259
vn 0.7635 0.4107 -0.4984
vn 0.8355 -0.0664 -0.5454
vn 0.5462 0.0386 0.8367
vn 0.5448 -0.0812 0.8346
vn -0.7989 -0.2597 0.5425
vn -0.8077 -0.2639 0.5273
vn -0.7866 0.3430 0.5135
vn -0.5291 0.2516 -0.8104
vn -0.5338 0.2156 -0.8177
vn -0.5641 0.2175 -0.7965
vn -0.5598 0.3238 -0.7628
vn -0.8368 -0.0379 0.5463
vn -0.8383 -0.0384 0.5438
vn 0.5641 -0.2227 0.7951
vn 0.5345 -0.2100 0.8187
vn 0.8264 0.1350 -0.5466
vn 0.8296 0.1361 -0.5416
vn -0.5203 0.3068 -0.7970
vn -0.9827 0.0573 -0.1759
vn -0.1707 0.2476 0.9537
vn -0.3890 0.1333 0.9116
vn 0.3633 -0.1366 -0.9216
vn 0.3595 -0.0271 -0.9328
vn 0.9263 -0.0174 0.3763
vn 0.8491 0.3409 0.4035
vn 0.8903 0.3956 0.2253
vn 0.9700 -0.0201 0.2422
vn 0.2824 0.3991 -0.8723
vn 0.2442 0.1196 -0.9623
vn 0.9519 -0.2087 0.2243
vn 0.9751 -0.0215 0.2207
vn -0.2704 -0.2937 0.9168
vn -0.1983 0.1119 0.9737
vn -0.8752 0.4322 -0.2175
vn -0.9677 0.1169 -0.2235
vn -0.1810 -0.2659 0.9469
vn -0.2787 0.2072 0.9378
vn -0.3885 0.1114 0.9147
vn -0.9337 -0.2699 -0.2352
vn -0.9638 0.1161 -0.2399
vn 0.1544 0.3600 -0.9201
vn 0.2651 -0.1201 -0.9567
vn -0.8829 -0.3316 -0.3325
vn -0.9542 0.0918 -0.2846
vn 0.1752 -0.1092 -0.9785
vn 0.9822 0.0659 0.1759
s off
f 55/1/1 59/2/1 57/3/1
f 57/3/2 53/4/2 55/1/2
f 57/5/3 60/6/3 53/7/3
f 62/8/4 68/9/4 66/10/4
f 54/11/5 56/12/5 60/13/5
f 58/14/6 54/11/6 60/13/6
f 58/14/7 60/13/7 62/8/7
f 62/15/8 63/16/8 58/17/8
f 65/18/9 67/19/9 69/20/9
f 61/21/10 65/22/10 64/23/10
f 65/18/11 61/24/11 63/25/11
f 67/19/12 65/18/12 63/25/12
f 62/15/13 67/26/13 63/16/13
f 66/27/14 67/26/14 62/15/14
f 69/28/15 67/26/15 66/27/15
f 68/9/16 69/29/16 66/10/16
f 65/22/17 69/30/17 68/31/17
f 64/23/18 65/22/18 68/31/18
f 62/8/19 64/32/19 68/9/19
f 60/13/20 64/32/20 62/8/20
f 61/21/21 64/23/21 60/6/21
f 57/5/22 61/21/22 60/6/22
f 63/25/23 61/24/23 57/3/23
f 59/2/24 63/25/24 57/3/24
f 58/17/25 63/16/25 59/33/25
f 54/34/26 58/17/26 59/33/26
f 55/35/27 54/34/27 59/33/27
f 56/36/28 54/37/28 55/38/28
f 53/39/28 56/36/28 55/38/28
f 56/40/29 53/7/29 60/6/29
f 49/41/30 52/42/30 48/43/30
f 44/44/31 49/41/31 48/43/31
f 48/45/32 50/46/32 44/47/32
f 52/48/33 50/46/33 48/45/33
f 45/49/34 47/50/34 51/51/34
f 47/52/28 45/53/28 46/54/28
f 51/55/35 47/56/35 46/57/35
f 50/58/36 51/55/36 46/57/36
f 52/59/37 51/55/37 50/58/37
f 49/60/38 51/51/38 52/61/38
f 45/49/34 51/51/34 49/60/34
f 44/44/31 45/62/31 49/41/31
f 46/54/28 45/53/28 44/63/28
f 46/64/39 44/47/39 50/46/39
f 37/65/40 41/66/40 38/67/40
f 37/68/41 35/69/41 39/70/41
f 41/71/42 37/68/42 39/70/42
f 41/71/43 39/70/43 43/72/43
f 41/66/44 43/73/44 42/74/44
f 38/67/45 41/66/45 42/74/45
f 40/75/46 36/76/46 38/77/46
f 42/78/47 40/75/47 38/77/47
f 43/79/48 40/75/48 42/78/48
f 39/80/49 40/81/49 43/82/49
f 36/83/50 40/81/50 39/80/50
f 35/84/51 36/83/51 39/80/51
f 32/85/52 36/83/52 35/84/52
f 32/86/28 31/87/28 34/88/28
f 36/76/53 32/89/53 34/90/53
f 38/77/54 36/76/54 34/90/54
f 37/65/55 38/67/55 34/91/55
f 31/92/56 37/65/56 34/91/56
f 35/69/57 37/68/57 31/93/57
f 33/94/58 35/69/58 31/93/58
f 32/85/59 35/84/59 33/95/59
f 33/96/28 31/87/28 32/86/28
f 24/97/60 28/98/60 25/99/60
f 24/100/61 22/101/61 26/102/61
f 28/103/62 24/100/62 26/102/62
f 28/103/63 26/102/63 30/104/63
f 28/98/64 30/105/64 29/106/64
f 25/99/65 28/98/65 29/106/65
f 27/107/66 23/108/66 25/109/66
f 29/110/67 27/107/67 25/109/67
f 30/111/68 27/107/68 29/110/68
f 26/112/69 27/113/69 30/114/69
f 23/115/70 27/113/70 26/112/70
f 22/116/71 23/115/71 26/112/71
f 19/117/72 23/115/72 22/116/72
f 19/118/28 20/119/28 21/120/28
f 23/108/73 19/121/73 21/122/73
f 25/109/74 23/108/74 21/122/74
f 24/97/75 25/99/75 21/123/75
f 20/124/76 24/97/76 21/123/76
f 22/101/77 24/100/77 20/125/77
f 18/126/78 22/101/78 20/125/78
f 19/117/79 22/116/79 18/127/79
f 18/128/28 20/119/28 19/118/28
f 2/129/80 4/130/80 8/131/80
f 4/132/28 2/133/28 3/134/28
f 8/135/81 4/136/81 3/137/81
f 7/138/82 8/135/82 3/137/82
f 5/139/83 6/140/83 9/141/83
f 1/142/84 6/140/84 5/139/84
f 5/143/85 7/144/85 1/145/85
f 11/146/86 7/144/86 5/143/86
f 9/147/87 11/146/87 5/143/87
f 9/147/88 13/148/88 11/146/88
f 14/149/89 13/150/89 9/141/89
f 17/151/90 13/150/90 14/149/90
f 15/152/91 13/148/91 17/153/91
f 11/146/92 13/148/92 15/152/92
f 15/154/93 16/155/93 11/156/93
f 17/157/94 16/155/94 15/154/94
f 14/158/95 16/159/95 17/160/95
f 12/161/96 16/159/96 14/158/96
f 11/156/97 16/155/97 12/162/97
f 7/138/98 11/156/98 12/162/98
f 8/135/99 7/138/99 12/162/99
f 12/161/100 10/163/100 8/131/100
f 14/158/101 10/163/101 12/161/101
f 9/141/102 10/164/102 14/149/102
f 6/140/103 10/164/103 9/141/103
f 8/131/104 10/163/104 6/165/104
f 2/129/105 8/131/105 6/165/105
f 1/142/106 2/166/106 6/140/106
f 3/134/28 2/133/28 1/167/28
f 3/168/107 1/145/107 7/144/107
