# Blender v2.78 (sub 0) OBJ File: ''
# www.blender.org
o Cube
v -0.126902 -0.168471 0.288358
v -0.138736 -0.153361 -0.072898
v 0.218120 -0.180373 -0.196376
v 0.487285 -0.174900 0.077794
v 0.237321 -0.174151 0.368413
v 0.906477 -0.077425 0.265116
v 1.066104 0.133765 0.228187
v 0.949396 0.343412 0.483150
v 0.773002 0.150834 0.702914
v 0.660160 -0.075828 0.557365
v -0.109156 -0.112119 0.616142
v 0.257247 -0.110876 0.736471
v 0.383000 0.116909 0.876280
v 0.093309 0.322650 0.888732
v -0.179343 0.122904 0.794937
v -0.353382 -0.088661 -0.040649
v -0.447565 -0.071814 0.336535
v -0.518413 0.163288 0.514784
v -0.679706 0.267741 0.188155
v -0.579844 0.167472 -0.128703
v 0.214176 -0.126199 -0.401702
v -0.141974 -0.108882 -0.241480
v -0.211256 0.132217 -0.478850
v 0.029939 0.329756 -0.658066
v 0.303963 0.092713 -0.621338
v 1.045365 0.087063 -0.104642
v 0.883819 -0.128448 -0.098508
v 0.508536 -0.146352 -0.325498
v 0.728156 0.063671 -0.511523
v 0.914951 0.310064 -0.386379
v 0.210237 0.562454 0.835156
v 0.546900 0.453046 0.801181
v 0.731728 0.634351 0.577752
v 0.569715 0.888020 0.355047
v 0.278354 0.825178 0.622182
v -0.420002 0.554331 0.418542
v -0.309853 0.393439 0.699799
v -0.007691 0.532013 0.815107
v 0.018844 0.788928 0.598308
v -0.170333 0.819493 0.232599
v -0.110675 0.617597 -0.633301
v -0.381611 0.480937 -0.448847
v -0.467783 0.602854 -0.154099
v -0.209828 0.859601 -0.240732
v 0.004508 0.900325 -0.511976
v 0.718936 0.662630 -0.549830
v 0.502121 0.470232 -0.700007
v 0.192415 0.639296 -0.722569
v 0.226897 0.916247 -0.577475
v 0.546643 0.931037 -0.441018
v 0.898331 0.653350 0.258565
v 1.016378 0.435577 0.009491
v 0.885966 0.658555 -0.272254
v 0.651188 0.928486 -0.267282
v 0.703942 0.903327 0.097887
v 0.190071 0.947896 0.312719
v 0.489113 1.000062 0.072509
v 0.488681 1.001661 -0.286479
v 0.162651 0.994528 -0.406183
v 0.020911 0.997046 -0.086376
vt 0.1004 0.3319
vt 0.2230 0.2864
vt 0.1805 0.3944
vt 0.3771 0.1939
vt 0.4118 0.1465
vt 0.4118 0.2238
vt 0.2124 0.1854
vt 0.0887 0.2312
vt 0.1317 0.1215
vt 0.3326 0.2850
vt 0.3749 0.3215
vt 0.3014 0.3641
vt 0.2057 0.5476
vt 0.2943 0.5768
vt 0.2189 0.6447
vt 0.8981 0.7845
vt 0.8105 0.8027
vt 0.8099 0.7279
vt 0.8826 0.5339
vt 0.8173 0.5729
vt 0.8215 0.5218
vt 0.6346 0.0810
vt 0.7244 0.1650
vt 0.5649 0.2028
vt 0.6143 0.7162
vt 0.5365 0.7591
vt 0.5239 0.6760
vt 0.3379 0.6696
vt 0.3379 0.7832
vt 0.2626 0.7375
vt 0.9475 0.6008
vt 0.9475 0.7143
vt 0.8559 0.6555
vt 0.7336 0.0699
vt 0.8347 0.1057
vt 0.8057 0.1373
vt 0.6817 0.7864
vt 0.6966 0.9052
vt 0.5874 0.8384
vt 0.6970 0.5431
vt 0.6821 0.6444
vt 0.5718 0.5954
vt 0.0937 0.7422
vt 0.1473 0.7646
vt 0.1507 0.8061
vt 0.8122 0.2754
vt 0.8389 0.3276
vt 0.7505 0.3541
vt 0.5667 0.3019
vt 0.6985 0.2707
vt 0.6296 0.3586
vt 0.5081 0.4136
vt 0.5092 0.3660
vt 0.5523 0.4049
vt 0.2352 0.8162
vt 0.2824 0.8449
vt 0.2378 0.8476
vt 0.3005 0.1302
vt 0.0254 0.3072
vt 0.0540 0.2965
vt 0.1649 0.0843
vt 0.1397 0.0361
vt 0.2100 0.0282
vt 0.3964 0.0857
vt 0.4591 0.0368
vt 0.4400 0.3111
vt 0.4591 0.3276
vt 0.3961 0.3642
vt 0.3217 0.5344
vt 0.3551 0.5881
vt 0.7612 0.6540
vt 0.7612 0.6540
vt 0.7659 0.5970
vt 0.7828 0.1507
vt 0.7912 0.1990
vt 0.5602 0.8026
vt 0.4928 0.8154
vt 0.3898 0.7814
vt 0.3739 0.8633
vt 0.3085 0.8235
vt 0.7633 0.8566
vt 0.7628 0.8568
vt 0.7624 0.8046
vt 0.6364 0.4324
vt 0.6364 0.4324
vt 0.6722 0.3867
vt 0.2287 0.0733
vt 1.0000 0.6979
vt 0.2250 0.5025
vt 0.3524 0.0593
vt 0.8163 0.0689
vt 0.7450 0.8702
vt 0.7439 0.5850
vt 0.7335 0.6552
vt 0.8450 0.8396
vt 0.9093 0.4936
vt 0.5638 0.1013
vt 0.1217 0.7212
vt 0.8741 0.2852
vt 0.4607 0.3976
vt 0.4621 0.3328
vt 0.7962 0.3843
vt 0.7155 0.4086
vt 0.2585 0.8811
vt 0.1078 0.2766
vt 0.0669 0.3687
vt 0.1255 0.0530
vt 0.4591 0.1154
vt 0.4209 0.0523
vt 0.3818 0.2609
vt 0.3024 0.6356
vt 0.3805 0.5652
vt 0.8275 0.6145
vt 0.6857 0.2240
vt 0.8257 0.1908
vt 0.4815 0.7408
vt 0.5191 0.8252
vt 0.3898 0.8558
vt 1.0000 0.5807
vt 0.7155 0.0332
vt 0.7365 0.8021
vt 0.9303 0.8218
vt 0.8303 0.4780
vt 0.4985 0.2152
vt 0.3898 0.6504
vt 0.0552 0.6934
vt 0.8517 0.2415
vt 0.3079 0.8780
vn 0.1707 -0.9772 0.1265
vn -0.3128 -0.9198 -0.2367
vn 0.1556 -0.9749 0.1592
vn -0.0002 -0.9669 -0.2551
vn 0.9912 0.1076 -0.0769
vn 0.7831 0.4443 0.4352
vn -0.1260 0.2744 0.9533
vn -0.7809 0.6135 0.1171
vn -0.2786 -0.0536 -0.9589
vn 0.8348 0.2328 -0.4989
vn 0.4057 0.0064 0.9140
vn -0.6392 -0.0382 0.7681
vn -0.6764 -0.2715 -0.6847
vn 0.2187 -0.3077 -0.9260
vn 0.3732 0.8940 0.2480
vn -0.1629 0.9004 0.4035
vn -0.5646 0.8171 0.1163
vn -0.1995 0.8608 -0.4682
vn 0.4220 0.8739 -0.2411
vn -0.0064 -0.9991 -0.0416
vn 0.0094 -0.9999 0.0107
vn 0.8551 -0.3046 0.4195
vn -0.0634 -0.3520 0.9339
vn -0.7783 -0.6052 -0.1673
vn -0.2703 -0.4447 -0.8539
vn 0.6845 -0.5274 -0.5033
vn 0.3653 0.7349 0.5713
vn -0.5568 0.6080 0.5659
vn -0.6388 0.5724 -0.5142
vn 0.3360 0.4366 -0.8346
vn 0.7524 0.6556 -0.0635
vn -0.0163 0.9998 -0.0151
vn -0.0531 -0.9837 0.1720
vn 0.1632 -0.9762 0.1429
vn 0.3620 -0.6246 0.6920
vn 0.8002 -0.5988 0.0342
vn 0.0872 -0.9940 -0.0658
vn -0.2927 -0.9557 -0.0304
vn -0.5493 -0.6036 0.5778
vn -0.1585 -0.9554 -0.2490
vn -0.5490 -0.6612 -0.5113
vn 0.1248 -0.7278 -0.6744
vn 0.9376 0.2917 0.1893
vn 0.9390 0.1751 -0.2961
vn 0.1465 0.1471 0.9782
vn 0.6413 0.2431 0.7278
vn -0.8025 0.3251 0.5003
vn -0.4031 0.1244 0.9067
vn -0.4952 -0.1686 -0.8523
vn -0.9103 0.2136 -0.3545
vn 0.5940 -0.0422 -0.8034
vn -0.0312 -0.1882 -0.9816
vn 0.6099 0.7059 0.3603
vn -0.1589 0.6463 0.7464
vn -0.6803 0.7234 0.1181
vn -0.2799 0.4726 -0.8356
vn 0.6864 0.6045 -0.4042
vn 0.1095 0.9343 0.3393
vn 0.4102 0.9120 0.0036
vn -0.3757 0.8870 0.2685
vn -0.4071 0.8939 -0.1875
vn 0.1179 0.9192 -0.3758
vn -0.2595 -0.9493 0.1773
vn -0.0709 -0.9974 0.0134
vn 0.5968 -0.6223 0.5064
vn 0.6682 -0.3948 0.6305
vn -0.2398 -0.6321 0.7368
vn -0.2486 -0.4033 0.8807
vn -0.7449 -0.6668 -0.0238
vn -0.8457 -0.4600 0.2705
vn -0.2512 -0.6323 -0.7329
vn -0.3173 -0.7101 -0.6286
vn 0.7638 -0.2849 -0.5791
vn 0.3398 -0.7973 -0.4989
vn 0.2627 0.5656 0.7817
vn 0.3204 0.5883 0.7424
vn -0.5488 0.7603 0.3474
vn -0.5092 0.5852 0.6311
vn -0.7141 0.5008 -0.4891
vn -0.7039 0.5597 -0.4373
vn 0.1833 0.4681 -0.8644
vn 0.2897 0.4156 -0.8622
vn 0.7932 0.6088 -0.0125
vn 0.8715 0.4901 -0.0155
vn -0.0557 0.9878 0.1452
vn -0.0080 1.0000 0.0045
s off
f 6/1/1 4/2/1 27/3/1
f 2/4/2 16/5/2 22/6/2
f 5/7/3 10/8/3 12/9/3
f 3/10/4 21/11/4 28/12/4
f 7/13/5 26/14/5 52/15/5
f 8/16/6 51/17/6 33/18/6
f 14/19/7 31/20/7 38/21/7
f 19/22/8 36/23/8 43/24/8
f 24/25/9 41/26/9 48/27/9
f 30/28/10 46/29/10 53/30/10
f 13/31/11 9/32/11 32/33/11
f 18/34/12 15/35/12 37/36/12
f 23/37/13 20/38/13 42/39/13
f 29/40/14 25/41/14 47/42/14
f 34/43/15 55/44/15 57/45/15
f 39/46/16 35/47/16 56/48/16
f 44/49/17 40/50/17 60/51/17
f 49/52/18 45/53/18 59/54/18
f 54/55/19 50/56/19 58/57/19
f 5/7/20 1/58/20 2/4/20
f 3/10/21 4/2/21 5/7/21
f 8/59/22 9/60/22 6/1/22
f 12/61/23 14/62/23 15/63/23
f 17/64/24 19/65/24 16/5/24
f 23/66/25 24/67/25 25/68/25
f 27/69/26 29/70/26 26/14/26
f 33/71/27 34/72/27 35/73/27
f 37/74/28 39/75/28 36/23/28
f 42/76/29 44/77/29 41/26/29
f 47/78/30 49/79/30 50/80/30
f 53/81/31 54/82/31 55/83/31
f 58/84/32 59/85/32 60/86/32
f 11/87/33 5/7/33 12/9/33
f 4/2/34 10/8/34 5/7/34
f 13/31/35 10/88/35 9/32/35
f 26/14/36 6/89/36 27/69/36
f 28/12/37 4/2/37 3/10/37
f 16/5/38 1/58/38 17/90/38
f 18/34/39 11/91/39 15/35/39
f 3/10/40 22/6/40 21/11/40
f 23/37/41 16/92/41 20/38/41
f 25/41/42 28/93/42 21/94/42
f 8/16/43 52/95/43 51/17/43
f 30/28/44 52/15/44 26/14/44
f 31/20/45 13/31/45 32/33/45
f 33/18/46 9/32/46 8/16/46
f 36/23/47 18/34/47 37/36/47
f 38/21/48 15/96/48 14/19/48
f 24/25/49 42/39/49 41/26/49
f 43/24/50 20/97/50 19/22/50
f 30/28/51 47/78/51 46/29/51
f 24/25/52 47/42/52 25/41/52
f 34/43/53 51/98/53 55/44/53
f 39/46/54 31/99/54 35/47/54
f 40/50/55 43/24/55 36/23/55
f 45/53/56 48/100/56 41/101/56
f 54/55/57 46/29/57 50/56/57
f 56/48/58 34/102/58 57/103/58
f 54/55/59 57/45/59 55/44/59
f 40/50/60 56/48/60 60/51/60
f 59/54/61 44/49/61 60/51/61
f 50/56/62 59/104/62 58/57/62
f 1/58/63 11/87/63 17/90/63
f 2/4/64 3/10/64 5/7/64
f 10/105/65 6/1/65 9/60/65
f 7/106/66 8/59/66 6/1/66
f 15/63/67 11/87/67 12/61/67
f 12/61/68 13/107/68 14/62/68
f 20/108/69 16/5/69 19/65/69
f 17/64/70 18/109/70 19/65/70
f 25/68/71 21/11/71 23/66/71
f 22/110/72 23/66/72 21/11/72
f 30/111/73 26/14/73 29/70/73
f 27/69/74 28/112/74 29/70/74
f 35/73/75 31/20/75 32/113/75
f 32/113/76 33/71/76 35/73/76
f 40/114/77 36/23/77 39/75/77
f 37/74/78 38/115/78 39/75/78
f 45/116/79 41/26/79 44/77/79
f 42/76/80 43/117/80 44/77/80
f 50/80/81 46/29/81 47/78/81
f 47/78/82 48/118/82 49/79/82
f 55/83/83 51/17/83 53/81/83
f 52/95/84 53/81/84 51/17/84
f 60/86/85 56/48/85 57/103/85
f 57/103/86 58/84/86 60/86/86
f 11/87/33 1/58/33 5/7/33
f 4/2/34 6/1/34 10/8/34
f 13/31/35 12/119/35 10/88/35
f 26/14/36 7/13/36 6/89/36
f 28/12/37 27/3/37 4/2/37
f 16/5/38 2/4/38 1/58/38
f 18/34/39 17/120/39 11/91/39
f 3/10/40 2/4/40 22/6/40
f 23/37/41 22/121/41 16/92/41
f 25/41/42 29/40/42 28/93/42
f 8/16/43 7/122/43 52/95/43
f 30/28/44 53/30/44 52/15/44
f 31/20/45 14/19/45 13/31/45
f 33/18/46 32/33/46 9/32/46
f 36/23/47 19/22/47 18/34/47
f 38/21/48 37/123/48 15/96/48
f 24/25/49 23/37/49 42/39/49
f 43/24/50 42/124/50 20/97/50
f 30/28/51 29/125/51 47/78/51
f 24/25/52 48/27/52 47/42/52
f 34/43/53 33/126/53 51/98/53
f 39/46/54 38/127/54 31/99/54
f 40/50/55 44/49/55 43/24/55
f 45/53/56 49/52/56 48/100/56
f 54/55/57 53/30/57 46/29/57
f 56/48/58 35/47/58 34/102/58
f 54/55/59 58/57/59 57/45/59
f 40/50/60 39/46/60 56/48/60
f 59/54/61 45/53/61 44/49/61
f 50/56/62 49/128/62 59/104/62
