# Blender v2.78 (sub 0) OBJ File: 'Stone.blend'
# www.blender.org
o Icosphere
v 0.510041 0.067625 0.374615
v -0.202187 0.042236 0.650798
v -0.481007 0.182594 0.027836
v 0.104648 0.740250 -0.518552
v 0.561940 0.665542 -0.176516
v 0.373072 0.696911 -0.470899
v 0.279605 0.753498 -0.029526
v -0.310800 0.634351 -0.468436
v 0.102808 0.574475 0.195661
v 0.516502 0.603518 0.112064
v 0.559867 0.505041 -0.431504
v 0.346834 0.545166 -0.591447
v -0.229156 0.519372 -0.629496
v -0.449530 0.513759 -0.440941
v 0.268302 0.238162 0.632917
v 0.543131 0.363619 0.354839
v 0.611885 0.469457 0.036469
v 0.112935 0.259361 -0.640433
v -0.543180 0.109159 -0.386441
v -0.436708 0.103697 0.276982
v 0.139748 0.047755 0.691497
v 0.652414 0.334813 -0.228680
v 0.430357 0.007176 -0.450463
v 0.036468 0.034765 -0.477441
v -0.473844 0.017653 0.100355
v 0.479931 -0.024490 -0.198304
v 0.209085 -0.157254 0.365584
v 0.356150 -0.075020 0.450213
v -0.389496 0.062645 -0.415919
v -0.266822 0.407178 0.117613
v 0.124206 0.647771 -0.607375
v -0.282259 0.196336 0.518441
v -0.253191 -0.067002 0.537045
v -0.539141 0.094792 -0.177854
v 0.028326 0.226618 0.700473
v -0.314723 0.617188 -0.570018
v -0.092439 0.638431 0.060004
v -0.092532 -0.146056 0.461679
v 0.082327 -0.091998 0.654446
v 0.180737 -0.105986 -0.215768
v -0.357245 -0.030097 -0.264155
v 0.599336 0.118662 -0.365632
v 0.434541 0.165160 0.574725
v -0.328709 0.243263 -0.561506
v -0.596263 0.188351 -0.294657
v 0.437779 0.140204 -0.542360
v -0.024168 0.444894 0.346747
v 0.425185 0.791697 -0.164609
v -0.382350 0.579652 -0.177207
vt 0.8477 0.3663
vt 0.7906 0.3519
vt 0.8290 0.0953
vt 0.6861 0.7036
vt 0.5249 0.5509
vt 0.5447 0.4768
vt 0.0676 1.0000
vt 0.0110 0.9359
vt 0.0564 0.9292
vt 0.2092 0.9604
vt 0.0790 0.4886
vt 0.0690 0.5271
vt 0.0164 0.4601
vt 0.0658 0.3647
vt 0.4705 0.8764
vt 0.5894 0.8192
vt 0.5798 0.9158
vt 0.4224 0.8907
vt 0.5211 0.9575
vt 0.2409 0.5364
vt 0.1095 0.2361
vt 0.2185 0.1592
vt 0.3394 0.3512
vt 0.2695 0.2370
vt 0.4202 0.2906
vt 0.1952 0.2887
vt 0.4202 0.7666
vt 0.2036 0.8680
vt 0.2306 0.7714
vt 0.1623 0.6349
vt 0.6861 0.5815
vt 0.8216 0.6744
vt 0.7309 0.7219
vt 0.9786 0.1304
vt 0.9370 0.0673
vt 1.0000 0.0000
vt 0.4202 0.1723
vt 0.3233 0.0381
vt 0.4391 0.6339
vt 0.4838 0.7661
vt 0.0793 0.7883
vt 0.1611 0.5500
vt 0.0560 0.6118
vt 0.0051 0.5364
vt 0.0000 0.2408
vt 0.1075 0.0560
vt 0.8307 0.9595
vt 0.7809 0.8871
vt 0.8332 0.7808
vt 0.9163 0.1991
vt 0.8660 0.2318
vt 0.9382 0.3352
vt 0.9933 0.2301
vt 0.6861 0.8030
vt 0.6331 0.0305
vt 0.5110 0.1593
vt 0.4781 0.0993
vt 0.4202 0.1256
vt 0.7216 0.1237
vt 0.7845 0.0000
vt 0.7660 0.4768
vt 0.6864 0.4217
vt 0.8973 0.3601
vt 0.8793 0.7147
vt 0.8704 0.5945
vt 0.0000 0.7738
vt 0.2707 0.8727
vt 0.4445 0.5054
vt 1.0000 0.3503
vt 0.8428 0.5355
vt 0.2377 0.0000
vt 0.1992 0.5959
vt 0.2707 0.7602
vt 0.3387 0.5248
vt 0.3885 0.4146
vt 0.4742 0.0284
vt 0.7309 0.4768
vt 0.8808 0.9172
vt 0.8808 0.5137
vt 0.8477 0.1130
vt 0.8477 0.0110
vt 0.4985 0.3137
vt 0.6280 0.4655
vt 0.4424 0.2080
vn 0.4779 -0.8781 0.0228
vn 0.6980 -0.7118 0.0778
vn 0.6232 -0.4677 -0.6267
vn 0.7350 -0.0403 -0.6768
vn -0.6640 0.7411 -0.0996
vn -0.6582 0.7526 -0.0204
vn 0.9394 0.2866 -0.1881
vn 0.6256 0.7089 -0.3258
vn -0.2612 0.9534 -0.1510
vn -0.6172 0.5493 0.5632
vn 0.0805 0.7485 0.6582
vn -0.1194 0.8207 0.5587
vn 0.6675 0.6995 0.2554
vn 0.6047 0.0394 -0.7955
vn 0.0664 -0.0108 -0.9977
vn -0.7054 0.4557 0.5430
vn 0.4769 0.5223 0.7069
vn 0.3365 0.6880 0.6430
vn 0.9790 -0.0975 0.1790
vn 0.9775 -0.0855 0.1928
vn 0.2697 -0.0560 -0.9613
vn -0.6495 0.0481 -0.7588
vn -0.7479 0.5989 0.2862
vn -0.8455 0.0189 0.5336
vn 0.4711 -0.4017 0.7853
vn 0.3500 0.0514 0.9353
vn -0.1154 -0.1214 0.9859
vn 0.9513 -0.2935 0.0945
vn -0.1280 -0.8581 -0.4972
vn -0.3363 -0.8337 -0.4380
vn 0.2682 -0.9479 -0.1718
vn 0.0393 -0.9708 0.2366
vn -0.0780 -0.9885 -0.1295
vn -0.1321 -0.9879 -0.0807
vn -0.3005 -0.6171 0.7273
vn -0.9672 0.0658 0.2453
vn 0.0255 -0.5928 -0.8049
vn 0.3119 0.5573 -0.7695
vn 0.9198 -0.0771 0.3846
vn -0.4912 0.4065 0.7704
vn -0.9309 -0.1565 0.3299
vn 0.0582 0.8180 0.5723
vn -0.1091 0.6765 -0.7283
vn 0.6996 0.6021 -0.3847
vn 0.5913 0.4365 -0.6781
vn -0.2310 0.9650 0.1245
vn 0.2062 0.9243 -0.3211
vn -0.2729 0.9572 0.0963
vn -0.2108 0.9763 0.0490
vn 0.8476 0.4210 0.3230
vn -0.5721 0.6102 0.5480
vn -0.1365 0.8057 0.5763
vn 0.2365 0.8379 0.4919
vn -0.6501 0.0476 -0.7584
vn 0.9650 0.2617 0.0146
vn 0.9175 0.0261 -0.3968
vn 0.0601 0.1207 -0.9909
vn -0.1067 0.4468 -0.8883
vn -0.1668 -0.1786 -0.9697
vn -0.1532 -0.5884 -0.7939
vn -0.8857 0.4502 0.1131
vn -0.8689 0.3798 0.3173
vn -0.4902 0.7790 0.3909
vn -0.3822 0.7600 0.5257
vn -0.1996 0.8204 0.5359
vn 0.1345 0.7799 0.6112
vn -0.8559 -0.3708 0.3606
vn -0.8152 0.1121 -0.5682
vn -0.3118 -0.5305 -0.7883
vn -0.8415 -0.5399 -0.0209
vn -0.7945 0.5239 0.3072
vn -0.0874 -0.8966 -0.4341
vn 0.2639 0.1164 0.9575
vn 0.5311 -0.5201 0.6689
vn 0.7066 -0.4935 0.5071
vn 0.7973 -0.6011 0.0547
vn 0.6109 -0.7617 -0.2158
vn -0.4260 -0.9038 0.0400
vn -0.5664 -0.8209 -0.0736
vn -0.6950 -0.7181 -0.0360
vn 0.2669 -0.9588 -0.0976
vn -0.2198 -0.8691 0.4431
vn 0.3054 -0.8912 0.3353
vn -0.1122 -0.2113 0.9710
vn -0.9815 0.0396 0.1871
vn 0.0165 -0.5689 -0.8222
vn 0.2329 0.6988 -0.6763
vn -0.2679 0.9609 0.0698
vn 0.8497 0.4719 0.2352
vn -0.6451 -0.1040 -0.7570
vn -0.1269 -0.5539 -0.8228
vn -0.8492 -0.1351 0.5105
vn -0.0306 -0.8872 -0.4603
vn -0.3909 -0.9204 -0.0045
s off
f 28/1/1 27/2/1 26/3/1
f 26/4/2 1/5/2 28/6/2
f 42/7/3 23/8/3 46/9/3
f 46/9/4 11/10/4 42/7/4
f 8/11/5 36/12/5 14/13/5
f 14/13/6 49/14/6 8/11/6
f 5/15/7 22/16/7 11/17/7
f 48/18/8 5/15/8 6/19/8
f 4/20/9 36/12/9 8/11/9
f 49/14/10 30/21/10 47/22/10
f 7/23/11 9/24/11 10/25/11
f 7/23/12 37/26/12 9/24/12
f 5/15/13 48/18/13 10/27/13
f 11/10/14 46/9/14 12/28/14
f 31/29/15 12/28/15 13/30/15
f 49/31/16 3/32/16 30/33/16
f 15/34/17 43/35/17 16/36/17
f 16/37/18 10/25/18 15/38/18
f 16/39/19 1/5/19 17/40/19
f 17/40/20 1/5/20 22/16/20
f 12/28/21 46/9/21 18/41/21
f 14/42/22 44/43/22 19/44/22
f 30/21/23 3/45/23 32/46/23
f 2/47/24 32/48/24 20/49/24
f 21/50/25 39/51/25 43/35/25
f 43/35/26 15/34/26 21/50/26
f 2/52/27 21/50/27 35/53/27
f 22/16/28 1/5/28 42/54/28
f 24/55/29 41/56/29 29/57/29
f 29/57/30 41/56/30 19/58/30
f 26/3/31 40/59/31 23/60/31
f 27/2/32 39/61/32 38/62/32
f 27/2/33 38/62/33 41/56/33
f 40/59/34 27/2/34 41/56/34
f 2/52/35 33/63/35 39/51/35
f 25/64/36 3/32/36 34/65/36
f 46/9/37 24/66/37 18/41/37
f 31/29/38 6/67/38 12/28/38
f 1/5/39 16/39/39 43/68/39
f 2/52/40 35/53/40 32/69/40
f 3/32/41 45/70/41 34/65/41
f 9/24/42 35/71/42 10/25/42
f 31/29/43 36/72/43 4/73/43
f 6/19/44 5/15/44 11/17/44
f 6/67/45 11/10/45 12/28/45
f 49/14/46 4/20/46 8/11/46
f 6/74/47 4/20/47 48/75/47
f 7/23/48 49/14/48 37/26/48
f 7/23/49 48/75/49 4/20/49
f 17/40/50 10/27/50 16/39/50
f 49/14/51 47/22/51 37/26/51
f 9/24/52 37/26/52 47/22/52
f 10/25/53 48/75/53 7/23/53
f 14/42/54 13/30/54 44/43/54
f 5/15/55 17/40/55 22/16/55
f 22/16/56 42/54/56 11/17/56
f 13/30/57 12/28/57 18/41/57
f 13/30/58 36/72/58 31/29/58
f 13/30/59 18/41/59 44/43/59
f 44/76/60 24/55/60 29/57/60
f 14/77/61 45/70/61 49/31/61
f 3/32/62 49/31/62 45/70/62
f 32/46/63 47/22/63 30/21/63
f 35/71/64 47/22/64 32/46/64
f 35/71/65 9/24/65 47/22/65
f 15/38/66 10/25/66 35/71/66
f 33/78/67 20/49/67 25/64/67
f 19/79/68 45/70/68 14/77/68
f 19/58/69 44/76/69 29/57/69
f 19/79/70 34/65/70 45/70/70
f 32/48/71 3/32/71 20/49/71
f 24/55/72 40/59/72 41/56/72
f 21/50/73 15/34/73 35/53/73
f 43/35/74 39/51/74 28/80/74
f 43/68/75 28/6/75 1/5/75
f 42/54/76 1/5/76 26/4/76
f 42/81/77 26/3/77 23/60/77
f 25/82/78 38/62/78 33/83/78
f 19/58/79 41/56/79 25/82/79
f 19/58/80 25/82/80 34/84/80
f 26/3/81 27/2/81 40/59/81
f 38/62/82 39/61/82 33/83/82
f 28/1/83 39/61/83 27/2/83
f 2/52/84 39/51/84 21/50/84
f 25/64/85 20/49/85 3/32/85
f 46/9/86 23/8/86 24/66/86
f 31/29/87 4/73/87 6/67/87
f 49/14/88 7/23/88 4/20/88
f 17/40/89 5/15/89 10/27/89
f 14/42/90 36/72/90 13/30/90
f 44/43/91 18/41/91 24/66/91
f 33/78/92 2/47/92 20/49/92
f 24/55/93 23/60/93 40/59/93
f 25/82/94 41/56/94 38/62/94
