# Blender v2.78 (sub 0) OBJ File: 'Stone3.blend'
# www.blender.org
o Icosphere
v 0.403426 -0.538313 -0.381604
v -0.412148 -0.366073 -0.933200
v -1.203657 -0.041454 -0.390608
v -1.090014 0.376818 -0.091618
v -0.117050 0.929161 0.872847
v 1.065310 0.482673 0.084099
v 0.800908 0.060687 -0.546317
v -0.786535 0.357093 1.276467
v 1.149578 0.091360 0.496633
v -1.366513 0.240587 0.702992
v 1.171643 -0.231185 0.019581
v -0.759650 -0.473117 -0.588866
v -1.123769 -0.259491 0.385564
v -0.254395 -0.475417 0.873592
v 0.633578 0.670352 0.712259
v -0.498541 0.020466 -1.041510
v 0.856843 -0.397697 0.624801
v -0.826009 -0.084420 1.160542
v -0.284976 0.843648 0.102323
v 0.395874 -0.606692 0.170435
v 0.452364 -0.278883 1.105117
v -0.101571 0.038475 1.430171
v 0.201792 0.380788 1.391076
v -0.406807 0.359075 -0.924152
v -1.191341 0.492440 0.817355
v 0.403446 0.655966 -0.426080
vt 0.8488 0.4961
vt 0.8890 0.3604
vt 1.0000 0.4843
vt 0.6366 0.8242
vt 0.7628 0.7800
vt 0.6987 0.9076
vt 0.6684 0.3204
vt 0.7020 0.4759
vt 0.5611 0.4097
vt 0.4856 0.6136
vt 0.3768 0.6458
vt 0.4047 0.4955
vt 0.0489 0.2481
vt 0.2388 0.2546
vt 0.1270 0.4670
vt 0.3398 0.1112
vt 0.3438 0.4195
vt 0.4210 0.4955
vt 0.5305 0.3752
vt 0.3287 0.7001
vt 0.3881 0.8237
vt 0.4148 0.9910
vt 0.4856 0.9363
vt 0.5305 0.6871
vt 0.6290 0.5357
vt 0.5419 0.8515
vt 0.2006 0.5815
vt 0.2616 0.6279
vt 0.1309 0.8739
vt 0.1058 0.5850
vt 0.0652 0.5402
vt 0.1556 0.4955
vt 0.4831 0.7814
vt 0.0000 0.7769
vt 0.0113 0.9747
vt 0.8940 0.0609
vt 0.5305 0.2463
vt 0.7628 0.6434
vt 0.4536 0.0524
vt 0.4895 0.2102
vt 0.1032 0.0553
vt 0.2299 0.0000
vt 0.0000 0.3140
vt 0.0562 0.0737
vt 0.2616 0.8894
vt 0.1634 1.0000
vt 0.2616 0.8410
vt 0.0979 0.4955
vt 0.3239 0.5751
vt 0.6522 0.1040
vt 0.7876 0.0000
vt 0.7202 0.4961
vt 1.0000 0.0851
vt 0.9959 0.2986
vn 0.4319 -0.9016 -0.0234
vn 0.8467 -0.4218 0.3243
vn -0.0196 -0.7319 0.6811
vn -0.9056 -0.4233 -0.0257
vn -0.4052 0.8444 -0.3505
vn 0.1569 0.9773 -0.1427
vn 0.6019 0.5236 -0.6029
vn -0.7095 0.1847 0.6800
vn -0.1176 0.2149 0.9695
vn 0.6921 0.3908 0.6069
vn 0.7591 0.5426 0.3596
vn 0.3410 0.2241 -0.9130
vn 0.3552 -0.1778 -0.9177
vn -0.6205 -0.3068 -0.7216
vn -0.6225 -0.3370 -0.7064
vn -0.6972 -0.5936 0.4020
vn 0.9867 0.1521 -0.0572
vn 0.5490 -0.5398 -0.6381
vn -0.1464 -0.9880 0.0490
vn -0.1373 -0.7087 0.6920
vn 0.7088 -0.2515 0.6591
vn 0.6749 -0.0624 0.7353
vn 0.3748 0.7425 0.5551
vn -0.3426 0.7753 0.5306
vn -0.6371 0.5553 -0.5346
vn 0.3072 0.9486 -0.0764
vn -0.0744 0.9052 -0.4185
vn -0.4654 0.8701 -0.1625
vn -0.7733 0.6124 -0.1641
vn -0.3756 0.9266 -0.0210
vn -0.1028 0.6510 0.7521
vn 0.3120 0.9476 -0.0687
vn 0.8623 0.1715 -0.4765
vn 0.3632 0.4113 -0.8360
vn -0.6402 0.4006 -0.6554
vn -0.8815 0.4087 -0.2367
vn -0.6843 -0.1273 0.7180
vn -0.3082 -0.2157 0.9265
vn -0.7188 -0.6850 -0.1184
vn -0.4048 -0.8462 0.3467
vn 0.3855 -0.2398 0.8910
vn 0.4163 -0.4873 -0.7676
vn -0.0005 -0.9548 -0.2973
vn -0.0336 -0.9918 -0.1233
vn -0.2921 -0.9512 0.0994
vn 0.4164 -0.9030 -0.1061
vn 0.1331 -0.9448 0.2995
vn 0.1430 -0.9260 0.3495
s off
f 17/1/1 20/2/1 11/3/1
f 9/4/2 17/5/2 11/6/2
f 14/7/3 21/8/3 22/9/3
f 13/10/4 10/11/4 3/12/4
f 4/13/5 19/14/5 24/15/5
f 19/14/6 5/16/6 26/17/6
f 7/18/7 26/17/7 6/19/7
f 25/20/8 10/11/8 8/21/8
f 23/22/9 8/21/9 22/23/9
f 9/4/10 15/24/10 23/25/10
f 9/4/11 6/26/11 15/24/11
f 16/27/12 24/28/12 7/29/12
f 7/29/13 2/30/13 16/27/13
f 2/30/14 12/31/14 3/32/14
f 3/32/15 16/27/15 2/30/15
f 10/11/16 13/10/16 18/33/16
f 11/6/17 6/26/17 9/4/17
f 1/34/18 7/29/18 11/35/18
f 14/7/19 12/36/19 20/2/19
f 22/9/20 18/37/20 14/7/20
f 9/4/21 21/38/21 17/5/21
f 9/4/22 23/25/22 21/38/22
f 23/39/23 15/40/23 5/16/23
f 25/41/24 8/42/24 5/16/24
f 24/15/25 3/43/25 4/13/25
f 26/17/26 5/16/26 6/19/26
f 24/15/27 19/14/27 26/17/27
f 4/13/28 25/41/28 19/14/28
f 25/41/29 4/13/29 10/44/29
f 5/16/30 19/14/30 25/41/30
f 5/45/31 8/21/31 23/22/31
f 6/19/32 5/16/32 15/40/32
f 6/46/33 11/35/33 7/29/33
f 7/29/34 24/28/34 26/47/34
f 16/48/35 3/43/35 24/15/35
f 10/11/36 4/49/36 3/12/36
f 8/21/37 10/11/37 18/33/37
f 18/33/38 22/23/38 8/21/38
f 12/36/39 13/50/39 3/51/39
f 18/37/40 13/50/40 14/7/40
f 21/38/41 23/25/41 22/52/41
f 1/34/42 2/30/42 7/29/42
f 2/53/43 1/54/43 12/36/43
f 12/36/44 1/54/44 20/2/44
f 13/50/45 12/36/45 14/7/45
f 20/2/46 1/54/46 11/3/46
f 17/1/47 14/7/47 20/2/47
f 17/1/48 21/8/48 14/7/48
