# Blender v2.78 (sub 0) OBJ File: ''
# www.blender.org
o Cube
v 1.000000 1.000000 -1.000000
v 1.000000 -1.000000 -1.000000
v 1.000000 1.000000 1.000000
v 1.000000 -1.000000 1.000000
v -1.000000 1.000000 -1.000000
v -1.000000 -1.000000 -1.000000
v -1.000000 1.000000 1.000000
v -1.000000 -1.000000 1.000000
vt 0.3333 0.0000
vt 0.6667 0.3333
vt 0.3333 0.3333
vt 0.3333 1.0000
vt 0.0000 0.6667
vt 0.3333 0.6667
vt 0.3333 0.6667
vt 0.6667 0.3333
vt 0.6667 0.6667
vt 0.6667 0.3333
vt 1.0000 0.0000
vt 1.0000 0.3333
vt 0.0000 0.3333
vt 0.3333 0.0000
vt 0.3333 0.3333
vt 0.0000 0.6667
vt 0.3333 0.6667
vt 0.6667 0.0000
vt 0.0000 1.0000
vt 0.3333 0.3333
vt 0.6667 0.0000
vt 0.0000 0.0000
vn 0.0000 0.0000 1.0000
vn 0.0000 1.0000 0.0000
vn -1.0000 0.0000 0.0000
vn 0.0000 -1.0000 0.0000
vn 1.0000 0.0000 0.0000
vn 0.0000 0.0000 -1.0000
s off
f 3/1/1 8/2/1 4/3/1
f 5/4/2 3/5/2 1/6/2
f 7/7/3 6/8/3 8/9/3
f 2/10/4 8/11/4 6/12/4
f 1/13/5 4/14/5 2/15/5
f 5/16/6 2/15/6 6/17/6
f 3/1/1 7/18/1 8/2/1
f 5/4/2 7/19/2 3/5/2
f 7/7/3 5/20/3 6/8/3
f 2/10/4 4/21/4 8/11/4
f 1/13/5 3/22/5 4/14/5
f 5/16/6 1/13/6 2/15/6
