# Blender v2.78 (sub 0) OBJ File: 'Tombstone.blend'
# www.blender.org
o Cube_Cube.001
v -1.362231 0.260980 -0.385743
v 1.362975 0.260980 0.385743
v 1.362231 0.260980 -0.385743
v -1.362004 0.260980 0.385743
v -0.120892 3.458675 -0.385743
v 0.120892 3.458675 0.385743
v -0.120892 3.458675 0.385743
v 0.120892 3.458675 -0.385743
v 1.474374 -0.260980 0.494434
v 1.474374 0.260980 0.494434
v 1.474374 -0.260980 -0.494434
v 1.474374 0.260980 -0.494434
v -1.474374 -0.260980 0.494434
v -1.474374 0.260980 0.494434
v -1.474374 -0.260980 -0.494434
v -1.474374 0.260980 -0.494434
v -0.724087 3.272425 -0.385743
v -1.204369 2.959021 -0.385743
v -1.362231 2.582039 -0.385743
v -1.362231 2.582040 0.385743
v -1.204369 2.959022 0.385743
v -0.724087 3.272425 0.385743
v 1.362231 2.582040 0.385743
v 1.204369 2.959022 0.385743
v 0.724087 3.272425 0.385743
v 0.724087 3.272425 -0.385743
v 1.204369 2.959021 -0.385743
v 1.362231 2.582039 -0.385743
v 1.294257 0.260980 0.385743
v -1.293971 0.260980 0.385743
v 0.114847 3.411073 0.385391
v -0.114847 3.411073 0.385391
v -1.294119 2.578269 0.385391
v -1.144151 2.936402 0.385391
v -0.687883 3.234135 0.385391
v 1.294119 2.578269 0.385391
v 1.144151 2.936402 0.385391
v 0.687883 3.234135 0.385391
v 1.294119 0.260931 0.313003
v -1.294119 0.260931 0.313003
v 0.114847 3.411073 0.313003
v -0.114847 3.411073 0.313003
v -1.294119 2.578269 0.313003
v -1.144151 2.936402 0.313003
v -0.687883 3.234135 0.313003
v 1.294119 2.578269 0.313003
v 1.144151 2.936402 0.313003
v 0.687883 3.234135 0.313003
vt 0.8195 0.4897
vt 0.6540 0.4835
vt 0.7991 0.4835
vt 0.4886 0.9341
vt 0.4886 0.9971
vt 0.4886 0.9341
vt 0.8195 0.1273
vt 0.8347 0.0000
vt 0.8347 0.1273
vt 0.6336 0.9341
vt 0.4886 0.9971
vt 0.7991 0.3327
vt 0.8195 0.3265
vt 0.2120 0.0582
vt 0.2653 0.0000
vt 0.3033 0.0582
vt 0.6336 0.8162
vt 0.8168 0.6529
vt 0.8168 0.8162
vt 0.6336 0.1632
vt 0.8195 0.0000
vt 0.8195 0.1632
vt 1.0000 0.6529
vt 0.8168 0.8162
vt 0.8168 0.6529
vt 0.6336 0.1632
vt 0.8195 0.3265
vt 0.6336 0.3265
vt 0.6336 0.6529
vt 0.8195 0.4897
vt 0.8195 0.6529
vt 0.4886 0.9341
vt 0.3435 0.9971
vt 0.3435 0.9341
vt 0.6336 0.3265
vt 0.6540 0.3327
vt 0.6540 0.4081
vt 0.6336 0.4897
vt 0.4886 0.0000
vt 0.3435 0.7153
vt 0.3435 0.0000
vt 0.4886 0.7153
vt 0.3435 0.8330
vt 0.4886 0.8330
vt 0.1718 1.0000
vt 0.3435 0.2741
vt 0.3435 1.0000
vt 0.1718 0.2741
vt 0.3336 0.1563
vt 0.1817 0.1563
vt 0.4886 0.0000
vt 0.6336 0.7153
vt 0.4886 0.7153
vt 0.6336 0.8330
vt 0.4886 0.8330
vt 0.4886 0.8330
vt 0.4886 0.9341
vt 0.4886 0.9971
vt 0.4886 0.9971
vt 0.4886 0.7153
vt 0.4886 0.7153
vt 0.4886 0.7153
vt 0.4886 0.8330
vt 0.4886 0.8330
vt 0.4886 0.9971
vt 0.4886 0.0000
vt 0.4886 0.0000
vt 0.8195 0.0000
vt 0.8347 0.0000
vt 0.0402 0.0582
vt 0.0935 0.0000
vt 0.1315 0.0582
vt 0.0000 1.0000
vt 0.1718 0.2741
vt 0.1718 1.0000
vt 0.0100 0.1563
vt 0.1618 0.1563
vt 0.8347 0.0000
vt 0.4886 0.9341
vt 0.4886 0.8330
vt 0.6540 0.3327
vt 0.6540 0.4835
vt 0.6540 0.4835
vt 0.4886 0.9341
vt 0.4886 0.0000
vt 0.4886 0.7153
vt 0.8195 0.0000
vt 0.6336 0.9971
vt 0.2500 0.0000
vt 0.6336 0.6529
vt 0.6336 0.0000
vt 1.0000 0.8162
vt 0.8195 0.1632
vt 0.6336 0.4897
vt 0.6540 0.4458
vt 0.6336 0.0000
vt 0.0783 0.0000
vt 0.0000 0.2741
vt 0.8195 0.0000
vt 0.6540 0.3327
vt 0.4886 0.9971
vt 0.4886 0.0000
vn -0.0000 -1.0000 -0.0000
vn -0.0022 0.0071 -1.0000
vn 0.2950 -0.9555 0.0000
vn 0.0000 0.0000 1.0000
vn -1.0000 0.0000 0.0000
vn 1.0000 0.0000 0.0000
vn 0.0000 0.0000 -1.0000
vn 0.0000 1.0000 0.0000
vn -0.2950 -0.9555 0.0000
vn -1.0000 0.0000 0.0010
vn -0.9224 -0.3863 0.0000
vn -0.5465 -0.8375 0.0000
vn 1.0000 0.0001 -0.0000
vn 0.9224 -0.3863 0.0000
vn 0.5465 -0.8375 0.0000
vn -0.0037 0.0057 -1.0000
vn 0.0037 0.0057 -1.0000
vn 0.0022 0.0071 -1.0000
vn -0.9224 0.3863 0.0000
vn 0.9224 0.3863 0.0000
vn 0.2950 0.9555 0.0000
vn -1.0000 0.0000 0.0020
vn 0.0052 0.0000 -1.0000
vn 0.0000 0.0074 -1.0000
vn 0.0000 -0.0002 -1.0000
vn 0.0050 0.0021 -1.0000
vn -0.0050 0.0021 -1.0000
vn 0.5465 0.8375 0.0000
vn -0.5465 0.8375 0.0000
vn 0.0000 -1.0000 0.0007
vn -0.2950 0.9555 0.0000
vn -1.0000 -0.0003 0.0000
vn 1.0000 0.0000 -0.0003
vn -1.0000 -0.0001 0.0000
vn -0.0052 -0.0000 -1.0000
vn 1.0000 0.0000 -0.0019
s off
f 12/1/1 2/2/1 3/3/1
f 22/4/2 32/5/2 35/6/2
f 8/7/1 7/8/1 5/9/1
f 17/10/3 7/11/3 22/4/3
f 12/1/1 1/12/1 16/13/1
f 26/14/4 5/15/4 17/16/4
f 10/17/5 11/18/5 9/19/5
f 12/20/4 15/21/4 11/22/4
f 16/23/6 13/24/6 15/25/6
f 14/26/7 9/27/7 13/28/7
f 15/29/8 9/30/8 11/31/8
f 25/32/9 8/33/9 26/34/9
f 14/35/1 1/12/1 4/36/1
f 14/35/1 30/37/1 10/38/1
f 2/39/10 28/40/10 3/41/10
f 23/42/11 27/43/11 28/40/11
f 24/44/12 26/34/12 27/43/12
f 3/45/4 19/46/4 1/47/4
f 28/48/4 18/49/4 19/46/4
f 27/50/4 17/16/4 18/49/4
f 4/51/13 19/52/13 20/53/13
f 20/53/14 18/54/14 21/55/14
f 21/55/15 17/10/15 22/4/15
f 21/55/16 35/6/16 34/56/16
f 24/44/17 38/57/17 25/32/17
f 25/32/18 31/58/18 6/59/18
f 34/56/19 43/60/19 33/61/19
f 36/62/20 47/63/20 37/64/20
f 38/57/21 41/65/21 31/58/21
f 30/66/22 43/60/22 40/67/22
f 2/39/23 36/62/23 23/42/23
f 7/8/24 31/68/24 32/69/24
f 4/51/25 33/61/25 30/66/25
f 23/42/26 37/64/26 24/44/26
f 20/53/27 34/56/27 33/61/27
f 45/70/7 41/71/7 48/72/7
f 40/73/7 46/74/7 39/75/7
f 46/74/7 44/76/7 47/77/7
f 44/76/7 48/72/7 47/77/7
f 31/68/8 42/78/8 32/69/8
f 37/64/28 48/79/28 38/57/28
f 35/6/29 44/80/29 34/56/29
f 30/81/30 39/82/30 29/83/30
f 32/5/31 45/84/31 35/6/31
f 29/85/13 46/86/13 36/62/13
f 12/1/1 10/38/1 2/2/1
f 22/4/2 7/11/2 32/5/2
f 8/7/1 6/87/1 7/8/1
f 17/10/3 5/88/3 7/11/3
f 12/1/1 3/3/1 1/12/1
f 26/14/4 8/89/4 5/15/4
f 10/17/5 12/90/5 11/18/5
f 12/20/4 16/91/4 15/21/4
f 16/23/6 14/92/6 13/24/6
f 14/26/7 10/93/7 9/27/7
f 15/29/8 13/94/8 9/30/8
f 25/32/9 6/59/9 8/33/9
f 14/35/1 16/13/1 1/12/1
f 2/2/1 10/38/1 29/95/1
f 14/35/1 4/36/1 30/37/1
f 29/95/1 10/38/1 30/37/1
f 2/39/32 23/42/32 28/40/32
f 23/42/11 24/44/11 27/43/11
f 24/44/12 25/32/12 26/34/12
f 3/45/4 28/48/4 19/46/4
f 28/48/4 27/50/4 18/49/4
f 27/50/4 26/14/4 17/16/4
f 4/51/33 1/96/33 19/52/33
f 20/53/14 19/52/14 18/54/14
f 21/55/15 18/54/15 17/10/15
f 21/55/16 22/4/16 35/6/16
f 24/44/17 37/64/17 38/57/17
f 25/32/18 38/57/18 31/58/18
f 34/56/19 44/80/19 43/60/19
f 36/62/20 46/86/20 47/63/20
f 38/57/21 48/79/21 41/65/21
f 30/66/34 33/61/34 43/60/34
f 2/39/25 29/85/25 36/62/25
f 7/8/24 6/87/24 31/68/24
f 4/51/35 20/53/35 33/61/35
f 23/42/26 36/62/26 37/64/26
f 20/53/27 21/55/27 34/56/27
f 45/70/7 42/97/7 41/71/7
f 40/73/7 43/98/7 46/74/7
f 46/74/7 43/98/7 44/76/7
f 44/76/7 45/70/7 48/72/7
f 31/68/8 41/99/8 42/78/8
f 37/64/28 47/63/28 48/79/28
f 35/6/29 45/84/29 44/80/29
f 30/81/30 40/100/30 39/82/30
f 32/5/31 42/101/31 45/84/31
f 29/85/36 39/102/36 46/86/36
